<svg width="700" height="700" xmlns="http://www.w3.org/2000/svg">

 <g>
  <title>background</title>
  <rect fill="none" id="canvas_background" height="402" width="582" y="-1" x="-1"/>
 </g>
 <g>
  <title>Layer 1</title>
  <circle id="svg_1" r="350" fill="#1d1d1d" cy="350" cx="350"/>
  <path id="svg_2" fill="#FFFFFF" d="m459.099,171.604l-109.099,109.099l-109.098,-109.097l0,0l0,0l0,0l0,0c-19.135,-19.135 -50.161,-19.136 -69.296,0c-19.136,19.136 -19.137,50.163 -0.001,69.298l109.098,109.096l-109.099,109.098c-19.136,19.136 -19.136,50.161 0,69.298c19.136,19.136 50.161,19.135 69.297,-0.001l0,0.001l109.099,-109.099l109.07,109.07c0.01,0.01 0.018,0.02 0.026,0.029c19.136,19.136 50.162,19.134 69.298,-0.002s19.136,-50.16 0,-69.296l-109.097,-109.098l109.07,-109.071c0.01,-0.01 0.02,-0.017 0.029,-0.027c19.136,-19.136 19.136,-50.16 0,-69.296c-19.136,-19.137 -50.161,-19.137 -69.297,-0.002z"/>
 </g>
</svg>