<?xml version="1.0" ?><!DOCTYPE svg  PUBLIC '-//W3C//DTD SVG 1.1//EN'  'http://www.w3.org/Graphics/SVG/1.1/DTD/svg11.dtd'><svg enable-background="new 0 0 700 700" height="700px" id="Layer_1" version="1.1" viewBox="0 0 700 700" width="700px" xml:space="preserve" xmlns="http://www.w3.org/2000/svg" xmlns:xlink="http://www.w3.org/1999/xlink"><circle cx="350" cy="349.999" fill="#8AC149" r="350"/><path d="M218.222,150.73c0,0-16.623,5.073-40.642,29.092s-26.438,46.237-26.438,46.237s6.827,93.617,117.801,204.589  C379.915,541.62,474.354,549.27,474.354,549.27s23.305-5.154,45.905-27.756c22.602-22.602,28.598-40.147,28.598-40.147  s-3.506-26.028-37.849-60.371c-34.341-34.341-59.824-37.303-59.824-37.303s-16.406,10.433-21.05,14.734  c-6.44,5.968-17.515,32.118-17.515,32.118s-45.595,0.03-92.842-47.217c-47.248-47.247-49.163-92.811-49.163-92.811  s27.628-11.128,34.087-17.587c4.464-4.465,15.385-20.335,15.385-20.335s-3.615-26.138-37.83-60.353  C248.045,158.031,218.222,150.73,218.222,150.73z" fill="#FFFFFF"/></svg>