<svg width="700" height="700" xmlns="http://www.w3.org/2000/svg">

 <g>
  <title>background</title>
  <rect fill="none" id="canvas_background" height="402" width="582" y="-1" x="-1"/>
 </g>
 <g>
  <title>Layer 1</title>
  <circle fill-opacity="0.8" id="svg_1" r="350" fill="#ffffff" cy="349.999" cx="350"/>
  <path id="svg_2" fill="#1d1d1d" d="m218.222,150.73c0,0 -16.623,5.073 -40.642,29.092s-26.438,46.237 -26.438,46.237s6.827,93.617 117.801,204.589c110.972,110.972 205.411,118.622 205.411,118.622s23.305,-5.154 45.905,-27.756c22.602,-22.602 28.598,-40.147 28.598,-40.147s-3.506,-26.028 -37.849,-60.371c-34.341,-34.341 -59.824,-37.303 -59.824,-37.303s-16.406,10.433 -21.05,14.734c-6.44,5.968 -17.515,32.118 -17.515,32.118s-45.595,0.03 -92.842,-47.217c-47.248,-47.247 -49.163,-92.811 -49.163,-92.811s27.628,-11.128 34.087,-17.587c4.464,-4.465 15.385,-20.335 15.385,-20.335s-3.615,-26.138 -37.83,-60.353c-34.211,-34.211 -64.034,-41.512 -64.034,-41.512z"/>
 </g>
</svg>