<?xml version="1.0" standalone="no"?>
<!DOCTYPE svg PUBLIC "-//W3C//DTD SVG 20010904//EN"
 "http://www.w3.org/TR/2001/REC-SVG-20010904/DTD/svg10.dtd">
<svg version="1.0" xmlns="http://www.w3.org/2000/svg"
 width="395.000000pt" height="395.000000pt" viewBox="0 0 395.000000 395.000000"
 preserveAspectRatio="xMidYMid meet">
<metadata>
Created by potrace 1.11, written by Peter Selinger 2001-2013
</metadata>
<g transform="translate(0.000000,395.000000) scale(0.100000,-0.100000)"
fill="#000000" stroke="none">
<path d="M549 3913 c-1 -4 -2 -879 -3 -1945 -1 -1718 1 -1935 14 -1928 8 5
132 92 274 194 l260 184 115 -107 c64 -59 131 -121 150 -138 l34 -31 157 104
c87 56 197 128 244 158 l85 55 203 -164 c112 -91 206 -165 209 -165 6 0 335
260 407 321 l23 20 320 -221 c176 -121 321 -220 322 -220 4 0 -3 3864 -7 3875
-4 12 -2805 20 -2807 8z"/>
</g>
</svg>
