<svg fill="#FFFFFF" xmlns="http://www.w3.org/2000/svg" xmlns:xlink="http://www.w3.org/1999/xlink" version="1.1" x="0px" y="0px" viewBox="0 0 91 91" style="enable-background:new 0 0 91 91;" xml:space="preserve"><g><path d="M67.1,27.6c-4.3-4.3-9.8-7-15.9-7.7l-0.4,3.7c5.3,0.6,10,2.9,13.7,6.7c9.1,9.1,9.1,24,0,33.1c-3.7,3.7-8.5,6-13.7,6.7   l0.4,3.7c6.1-0.7,11.6-3.4,15.9-7.7C77.6,55.4,77.6,38.2,67.1,27.6z"></path><path d="M50.7,57.2l0.4,3.7c3.2-0.4,6.1-1.8,8.4-4.1c2.7-2.7,4.2-6.3,4.2-10.1s-1.5-7.4-4.2-10c-2.3-2.3-5.2-3.7-8.3-4.1l-0.4,3.7   c2.4,0.3,4.5,1.3,6.1,3c2,2,3.1,4.6,3.1,7.4c0,2.8-1.1,5.4-3.1,7.4C55.1,55.8,53,56.9,50.7,57.2z"></path><rect x="17.8" y="35.1" width="6.5" height="23.3"></rect><path d="M42.4,68.3c0.3,0.2,0.6,0.3,1,0.3c0.3,0,0.5-0.1,0.8-0.2c0.6-0.3,0.9-0.9,0.9-1.5V26.7c0-0.6-0.4-1.2-0.9-1.5   c-0.6-0.3-1.2-0.2-1.7,0.1L28,35.4c-0.5,0.3-0.7,0.8-0.7,1.4v20c0,0.6,0.3,1.1,0.7,1.4L42.4,68.3z"></path></g></svg>