<svg fill="#FFFFFF" xmlns="http://www.w3.org/2000/svg" xmlns:xlink="http://www.w3.org/1999/xlink" version="1.1" x="0px" y="0px" viewBox="0 0 91 91" style="enable-background:new 0 0 91 91;" xml:space="preserve"><g><path d="M68,33.7c5.9,9.3,4.5,21.2-3.3,29c-3.7,3.7-8.5,6-13.7,6.7l0.4,3.7c6.1-0.7,11.6-3.4,16-7.7c9-9,10.6-22.9,3.8-33.7   L68,33.7z"></path><path d="M51,56.5l0.4,3.7c3.2-0.4,6.1-1.8,8.4-4.1c4-4,5.2-9.9,3.2-15.2l-3.5,1.4c1.5,3.9,0.6,8.2-2.4,11.2   C55.5,55.2,53.3,56.2,51,56.5z"></path><rect x="18.2" y="34.4" width="6.5" height="23.3"></rect><path d="M42.8,67.6c0.3,0.2,0.6,0.3,1,0.3c0.3,0,0.5-0.1,0.8-0.2c0.6-0.3,0.9-0.9,0.9-1.5v-7.9c0-0.7-0.4-1.3-1.1-1.6   c-0.6-0.3-1.4-0.1-1.8,0.4L38,61.9c-0.3,0.4-0.5,0.8-0.5,1.3c0,0.5,0.3,0.9,0.7,1.2L42.8,67.6z"></path><path d="M66.4,26c-4.2-3.8-9.3-6.2-15-6.9L51,22.9c4.8,0.6,9.2,2.6,12.8,5.8L58,34.5c-1.9-1.4-4.2-2.2-6.5-2.5L51,35.7   c1.5,0.2,3,0.7,4.3,1.5l-9.8,9.8V26c0-0.6-0.4-1.2-0.9-1.5c-0.6-0.3-1.2-0.2-1.7,0.1L28.3,34.8c-0.5,0.3-0.7,0.8-0.7,1.4v20   c0,0.6,0.3,1.1,0.7,1.4l3.9,2.8L21.2,71.3l2.4,2.4l51-51l-2.4-2.4L66.4,26z"></path></g></svg>