<svg xmlns="http://www.w3.org/2000/svg" xmlns:xlink="http://www.w3.org/1999/xlink" viewBox="0 0 100 100" version="1.1" x="0px" y="0px"><title>next</title><desc>Created with Sketch.</desc><g stroke="none" stroke-width="1" fill="none" fill-rule="evenodd"><g fill="#000000"><path d="M0,50 C0,22.3857625 22.3796909,0 50,0 C77.6142375,0 100,22.3796909 100,50 C100,77.6142375 77.6203091,100 50,100 C22.3857625,100 0,77.6203091 0,50 L0,50 Z M59.562304,52.4504362 L33.7392652,69.3676758 C31.674126,70.7205938 30,69.8291419 30,67.3934481 L30,32.6080749 C30,30.1648211 31.674252,29.2810117 33.7392652,30.6338472 L59.562304,47.5510868 C61.6274431,48.9040048 61.6273172,51.0976007 59.562304,52.4504362 L59.562304,52.4504362 Z M63,31.9972916 C63,30.8942179 63.8867064,30 64.9981014,30 L69.0018986,30 C70.1054196,30 71,30.8915398 71,31.9972916 L71,68.0027084 C71,69.1057821 70.1132936,70 69.0018986,70 L64.9981014,70 C63.8945804,70 63,69.1084602 63,68.0027084 L63,31.9972916 L63,31.9972916 Z"></path></g></g></svg>