<svg xmlns="http://www.w3.org/2000/svg" xmlns:xlink="http://www.w3.org/1999/xlink" viewBox="0 0 100 100" version="1.1" x="0px" y="0px"><title>prev</title><desc>Created with Sketch.</desc><g stroke="none" stroke-width="1" fill="none" fill-rule="evenodd"><g fill="#000000"><path d="M0,50 C0,22.3857625 22.3796909,0 50,0 C77.6142375,0 100,22.3796909 100,50 C100,77.6142375 77.6203091,100 50,100 C22.3857625,100 0,77.6203091 0,50 L0,50 Z M41.437696,52.4504362 L67.2607348,69.3676758 C69.325874,70.7205938 71,69.8291419 71,67.3934481 L71,32.6080749 C71,30.1648211 69.325748,29.2810117 67.2607348,30.6338472 L41.437696,47.5510868 C39.3725569,48.9040048 39.3726828,51.0976007 41.437696,52.4504362 L41.437696,52.4504362 Z M38,31.9972916 C38,30.8942179 37.1132936,30 36.0018986,30 L31.9981014,30 C30.8945804,30 30,30.8915398 30,31.9972916 L30,68.0027084 C30,69.1057821 30.8867064,70 31.9981014,70 L36.0018986,70 C37.1054196,70 38,69.1084602 38,68.0027084 L38,31.9972916 L38,31.9972916 Z"></path></g></g></svg>