<svg xmlns="http://www.w3.org/2000/svg" xmlns:xlink="http://www.w3.org/1999/xlink" viewBox="0 0 100 100" version="1.1" x="0px" y="0px"><title>stop</title><desc>Created with Sketch.</desc><g stroke="none" stroke-width="1" fill="none" fill-rule="evenodd"><g fill="#000000"><path d="M0,50 C0,22.3857625 22.3796909,0 50,0 C77.6142375,0 100,22.3796909 100,50 C100,77.6142375 77.6203091,100 50,100 C22.3857625,100 0,77.6203091 0,50 L0,50 Z M32,33.9997073 C32,32.8952994 32.8898926,32 33.9997073,32 L66.0002927,32 C67.1047006,32 68,32.8898926 68,33.9997073 L68,66.0002927 C68,67.1047006 67.1101074,68 66.0002927,68 L33.9997073,68 C32.8952994,68 32,67.1101074 32,66.0002927 L32,33.9997073 L32,33.9997073 Z"></path></g></g></svg>