<svg width="56.693" height="56.693" xmlns="http://www.w3.org/2000/svg">

 <g>
  <title>background</title>
  <rect fill="none" id="canvas_background" height="402" width="582" y="-1" x="-1"/>
 </g>
 <g>
  <title>Layer 1</title>
  <path fill-opacity="0.8" id="svg_2" fill="#ffffff" d="m47.604,40.265l-25.008,0c-0.947,0 -1.716,0.77 -1.716,1.717s0.769,1.715 1.716,1.715l25.008,0c0.947,0 1.716,-0.768 1.716,-1.715s-0.769,-1.717 -1.716,-1.717z"/>
  <path fill-opacity="0.8" id="svg_3" fill="#ffffff" d="m47.604,26.95l-25.008,0c-0.947,0 -1.716,0.768 -1.716,1.716c0,0.949 0.769,1.714 1.716,1.714l25.008,0c0.947,0 1.716,-0.766 1.716,-1.714c-0.001,-0.949 -0.769,-1.716 -1.716,-1.716z"/>
  <path fill-opacity="0.8" id="svg_4" fill="#ffffff" d="m22.596,17.065l25.008,0c0.947,0 1.716,-0.768 1.716,-1.715c0,-0.948 -0.769,-1.717 -1.716,-1.717l-25.008,0c-0.947,0 -1.716,0.769 -1.716,1.717c0,0.947 0.768,1.715 1.716,1.715z"/>
  <path fill-opacity="0.8" id="svg_5" fill="#ffffff" d="m14.551,11.506l-4.254,0c-0.948,0 -1.717,0.768 -1.717,1.715l0,4.256c0,0.947 0.769,1.717 1.717,1.717l4.254,0c0.948,0 1.717,-0.77 1.717,-1.717l0,-4.256c0,-0.947 -0.769,-1.715 -1.717,-1.715z"/>
  <path fill-opacity="0.8" id="svg_6" fill="#ffffff" d="m14.551,24.821l-4.254,0c-0.948,0 -1.717,0.77 -1.717,1.718l0,4.255c0,0.947 0.769,1.715 1.717,1.715l4.254,0c0.948,0 1.717,-0.768 1.717,-1.715l0,-4.255c0,-0.949 -0.769,-1.718 -1.717,-1.718z"/>
  <path fill-opacity="0.8" id="svg_7" fill="#ffffff" d="m14.551,38.138l-4.254,0c-0.948,0 -1.717,0.768 -1.717,1.715l0,4.256c0,0.947 0.769,1.715 1.717,1.715l4.254,0c0.948,0 1.717,-0.768 1.717,-1.715l0,-4.256c0,-0.948 -0.769,-1.715 -1.717,-1.715z"/>
 </g>
</svg>